<mxfile host="65bd71144e" pages="3" scale="1" border="20">
    <diagram id="idhxigilsuWetFB2cpPl" name="useReducer()">
        <mxGraphModel dx="1144" dy="622" grid="1" gridSize="10" guides="1" tooltips="1" connect="1" arrows="1" fold="1" page="0" pageScale="1" pageWidth="827" pageHeight="1169" math="0" shadow="0">
            <root>
                <mxCell id="0"/>
                <mxCell id="1" parent="0"/>
                <mxCell id="N8z0Ye5YrI288PrtkeDU-3" value="useReducer()" style="text;strokeColor=none;fillColor=none;html=1;fontSize=34;fontStyle=1;verticalAlign=middle;align=center;fontColor=#333333;" parent="1" vertex="1">
                    <mxGeometry x="50" y="380" width="230" height="70" as="geometry"/>
                </mxCell>
                <mxCell id="-Ry6M9x0l0Hvcf1J6-pP-11" value="" style="html=1;" parent="1" vertex="1">
                    <mxGeometry x="-40" y="680" width="130" height="100" as="geometry"/>
                </mxCell>
                <mxCell id="2" value="Dispatch" style="html=1;fillColor=#e1d5e7;strokeColor=#9673a6;" parent="1" vertex="1">
                    <mxGeometry x="-30" y="480" width="110" height="50" as="geometry"/>
                </mxCell>
                <mxCell id="3" value="ActionObject" style="html=1;fillColor=#d5e8d4;strokeColor=#82b366;fontColor=#006600;" parent="1" vertex="1">
                    <mxGeometry x="15" y="516" width="80" height="30" as="geometry"/>
                </mxCell>
                <mxCell id="4" value="Reducer" style="html=1;fillColor=#dae8fc;strokeColor=#6c8ebf;fontColor=#003366;" parent="1" vertex="1">
                    <mxGeometry x="280" y="480" width="110" height="50" as="geometry"/>
                </mxCell>
                <mxCell id="5" value="State" style="html=1;fillColor=#ffe6cc;strokeColor=#d79b00;fontColor=#663300;" parent="1" vertex="1">
                    <mxGeometry x="280" y="705" width="110" height="50" as="geometry"/>
                </mxCell>
                <mxCell id="6" value="" style="endArrow=classic;html=1;entryX=0.133;entryY=1.101;entryDx=0;entryDy=0;exitX=0.5;exitY=0;exitDx=0;exitDy=0;entryPerimeter=0;" parent="1" source="17" target="3" edge="1">
                    <mxGeometry width="50" height="50" relative="1" as="geometry">
                        <mxPoint x="270" y="720" as="sourcePoint"/>
                        <mxPoint x="320" y="580" as="targetPoint"/>
                    </mxGeometry>
                </mxCell>
                <mxCell id="7" value="" style="endArrow=classic;html=1;entryX=0;entryY=0.5;entryDx=0;entryDy=0;exitX=1;exitY=0.5;exitDx=0;exitDy=0;" parent="1" source="2" target="4" edge="1">
                    <mxGeometry width="50" height="50" relative="1" as="geometry">
                        <mxPoint x="185" y="525" as="sourcePoint"/>
                        <mxPoint x="320" y="580" as="targetPoint"/>
                    </mxGeometry>
                </mxCell>
                <mxCell id="8" value="" style="endArrow=classic;html=1;exitX=0.5;exitY=1;exitDx=0;exitDy=0;entryX=0.5;entryY=0;entryDx=0;entryDy=0;" parent="1" source="4" target="5" edge="1">
                    <mxGeometry width="50" height="50" relative="1" as="geometry">
                        <mxPoint x="270" y="630" as="sourcePoint"/>
                        <mxPoint x="300" y="690" as="targetPoint"/>
                    </mxGeometry>
                </mxCell>
                <mxCell id="9" value="" style="endArrow=classic;html=1;entryX=1;entryY=0.5;entryDx=0;entryDy=0;exitX=0;exitY=0.5;exitDx=0;exitDy=0;" parent="1" source="5" target="-Ry6M9x0l0Hvcf1J6-pP-11" edge="1">
                    <mxGeometry width="50" height="50" relative="1" as="geometry">
                        <mxPoint x="270" y="630" as="sourcePoint"/>
                        <mxPoint x="320" y="580" as="targetPoint"/>
                    </mxGeometry>
                </mxCell>
                <mxCell id="12" value="State update" style="text;html=1;strokeColor=none;fillColor=none;align=center;verticalAlign=middle;whiteSpace=wrap;rounded=0;" parent="1" vertex="1">
                    <mxGeometry x="320" y="594" width="110" height="20" as="geometry"/>
                </mxCell>
                <mxCell id="13" value="Component re-rendering" style="text;html=1;strokeColor=none;fillColor=none;align=center;verticalAlign=middle;whiteSpace=wrap;rounded=0;" parent="1" vertex="1">
                    <mxGeometry x="127.5" y="700" width="110" height="20" as="geometry"/>
                </mxCell>
                <mxCell id="15" value="&amp;lt;Component /&amp;gt;" style="text;html=1;strokeColor=none;fillColor=none;align=center;verticalAlign=middle;whiteSpace=wrap;rounded=0;" parent="1" vertex="1">
                    <mxGeometry x="-47" y="680" width="110" height="20" as="geometry"/>
                </mxCell>
                <mxCell id="16" value="&lt;span style=&quot;color: rgb(0, 0, 0); font-family: helvetica; font-size: 12px; font-style: normal; font-weight: 400; letter-spacing: normal; text-indent: 0px; text-transform: none; word-spacing: 0px; background-color: rgb(255, 255, 255); display: inline; float: none;&quot;&gt;Dispatches &lt;br&gt;the action object&lt;/span&gt;" style="text;whiteSpace=wrap;html=1;align=center;" parent="1" vertex="1">
                    <mxGeometry x="120" y="467" width="125" height="30" as="geometry"/>
                </mxCell>
                <mxCell id="17" value="" style="rounded=0;whiteSpace=wrap;html=1;align=center;fillColor=#f5f5f5;strokeColor=#666666;fontColor=#333333;" parent="1" vertex="1">
                    <mxGeometry x="-20" y="715" width="90" height="40" as="geometry"/>
                </mxCell>
                <mxCell id="18" value="EventHandler" style="text;html=1;strokeColor=none;fillColor=none;align=center;verticalAlign=middle;whiteSpace=wrap;rounded=0;" parent="1" vertex="1">
                    <mxGeometry x="-12" y="725" width="80" height="20" as="geometry"/>
                </mxCell>
                <mxCell id="19" value="&lt;font face=&quot;helvetica&quot;&gt;Calls Dispatch(ActionObject)&lt;/font&gt;" style="text;whiteSpace=wrap;html=1;align=center;rotation=0;" parent="1" vertex="1">
                    <mxGeometry x="-69" y="591" width="125" height="30" as="geometry"/>
                </mxCell>
            </root>
        </mxGraphModel>
    </diagram>
</mxfile>